<svg xmlns="http://www.w3.org/2000/svg" viewBox="0 0 64 64" width="64" height="64">
  <defs>
    <!-- Primary purple gradient matching site -->
    <linearGradient id="iconPrimary" x1="0%" y1="0%" x2="100%" y2="100%">
      <stop offset="0%" style="stop-color:#6b46c1"/>
      <stop offset="100%" style="stop-color:#8b5cf6"/>
    </linearGradient>
    
    <!-- Accent purple gradient matching site -->
    <linearGradient id="iconAccent" x1="0%" y1="0%" x2="100%" y2="0%">
      <stop offset="0%" style="stop-color:#8b5cf6"/>
      <stop offset="100%" style="stop-color:#a855f7"/>
    </linearGradient>
    
    <filter id="iconShadow" x="-50%" y="-50%" width="200%" height="200%">
      <feDropShadow dx="0" dy="2" stdDeviation="2" flood-color="#000" flood-opacity="0.15"/>
    </filter>
  </defs>
  
  <!-- Professional rounded square background -->
  <rect x="4" y="4" width="56" height="56" rx="12" ry="12" fill="white" filter="url(#iconShadow)"/>
  <rect x="6" y="6" width="52" height="52" rx="10" ry="10" fill="url(#iconPrimary)" opacity="0.1"/>
  
  <!-- Enterprise L logo mark -->
  <g transform="translate(32,32)">
    <!-- Main L shape -->
    <path d="M-10 -14 L-10 10 L10 10 L10 6 L-6 6 L-6 -14 Z" fill="url(#iconPrimary)"/>
    
    <!-- Enterprise connectivity hub -->
    <rect x="10" y="-1" width="6" height="2" rx="1" fill="url(#iconAccent)"/>
    
    <!-- Network nodes -->
    <circle cx="18" cy="-4" r="1.5" fill="url(#iconPrimary)" opacity="0.9"/>
    <circle cx="18" cy="0" r="1.5" fill="url(#iconPrimary)" opacity="0.9"/>
    <circle cx="18" cy="4" r="1.5" fill="url(#iconPrimary)" opacity="0.9"/>
    
    <!-- Connection lines -->
    <path d="M16 -1 L16.5 -3.5 M16 0 L16.5 0 M16 1 L16.5 3.5" stroke="url(#iconAccent)" stroke-width="1" opacity="0.8"/>
    
    <!-- Small tech elements -->
    <rect x="20" y="-6" width="2" height="2" rx="0.3" fill="url(#iconAccent)" opacity="0.6"/>
    <rect x="20" y="-2" width="2" height="2" rx="0.3" fill="url(#iconAccent)" opacity="0.6"/>
    <rect x="20" y="2" width="2" height="2" rx="0.3" fill="url(#iconAccent)" opacity="0.6"/>
    <rect x="20" y="6" width="2" height="2" rx="0.3" fill="url(#iconAccent)" opacity="0.6"/>
  </g>
</svg>